<svg viewBox="0 0 100 100">
  <polygon points="50,5 5,50 50,95 95,50" fill="#012169"/>
  <polygon points="25,31 69,75 75,69 31,25" fill="white"/>
  <polygon points="75,31 69,25 25,69 31,75" fill="white"/>
  <polygon points="25,27 73,75 75,73 27,25" fill="#C8102E"/>
  <polygon points="25,73 73,25 75,27 27,75" fill="#C8102E"/>
  <polygon points="42,13 42,42 13,42 13,58 42,58 42,87 58,87 58,58 87,58 87,42 58,42 58,13" fill="white"/>
  <polygon points="44,6 44,44 6,44 6,56 44,56 44,94 56,94 56,56 94,56 94,44 56,44 56,6" fill="#C8102E"/>
</svg>
