<svg viewBox="0 0 100 100">
  <polygon points="50,5 5,50 50,95 95,50" fill="#012169" />
  <polygon points="25,33 67,75 75,67 33,25" fill="white" />
  <polygon points="75,33 67,25 25,67 33,75" fill="white" />
  <polygon points="25,25 43,43 39,43 25,29" fill="#C8102E" />
  <polygon points="25,75 43,57 43,61 29,75" fill="#C8102E" />
  <polygon points="75,75 57,57 61,57 75,71" fill="#C8102E" />
  <polygon points="75,25 57,43 57,39 71,25" fill="#C8102E" />
  <polygon points="43,10 43,43 10,43 10,57 43,57 43,90 57,90 57,57 90,57 90,43 57,43 57,10" fill="white" />
  <polygon points="47,3 47,47 3,47 3,53 47,53 47,97 53,97 53,53 97,53 97,47 53,47 53,3" fill="#C8102E" />
</svg>
