<svg viewBox="0 0 100 100">
  <mask id="diamond">
    <polygon points="50,0 0,50 50,100 100,50" fill="white" />
  </mask>
  <g mask="url(#diamond)">
    <rect x="0" y="0" width="100" height="100" fill="#012169" />
    <polygon points="0,8 92,100 100,92 8,0" fill="white" />
    <polygon points="100,8 92,0 0,92 8,100" fill="white" />
    <polygon points="0,3 97,100 100,97 3,0" fill="#C8102E" />
    <polygon points="100,3 97,0 0,97 3,100" fill="#C8102E" />
    <polygon points="43,0 43,43 0,43 0,57 43,57 43,100 57,100 57,57 100,57 100,43 57,43 57,0" fill="white" />
    <polygon points="47,0 47,47 0,47 0,53 47,53 47,100 53,100 53,53 100,53 100,47 53,47 53,0" fill="#C8102E" />
    <polygon points="50,5 5,50 50,95 95,50" fill="none" stroke="lightgray" strokeWidth="10" />
  </g>
</svg>
