<svg viewBox="0 0 100 100">
  <mask id="diamond">
    <polygon points="50,0 0,50 50,100 100,50" fill="white" />
  </mask>
  <g mask="url(#diamond)">
    <polygon points="50,0, 0,50 50,50" fill="#002147" />
    <rect x="50" y="20" width="50" height="10" fill="#BB133E" />
    <rect x="50" y="40" width="50" height="10" fill="#BB133E" />
    <rect x="0" y="60" width="100" height="10" fill="#BB133E" />
    <rect x="0" y="80" width="100" height="10" fill="#BB133E" />
    <path id="star" d="
M 45.000 46.000
L 46.176 46.618
L 45.951 45.309
L 46.902 44.382
L 45.588 44.191
L 45.000 43.000
L 44.412 44.191
L 43.098 44.382
L 44.049 45.309
L 43.824 46.618
L 45.000 46.000
" fill="white"/>
    <use xlink:href="#star" transform="translate(-20, 0)" />
    <use xlink:href="#star" transform="translate(-15, -5)" />
    <use xlink:href="#star" transform="translate(-10, -10)" />
    <use xlink:href="#star" transform="translate(-10, 0)" />
    <use xlink:href="#star" transform="translate(-5, -15)" />
    <use xlink:href="#star" transform="translate(-5, -5)" />
    <use xlink:href="#star" transform="translate(0, -20)" />
    <use xlink:href="#star" transform="translate(0, -10)" />
    <polygon points="50,5 5,50 50,95 95,50" fill="none" stroke="lightgray" strokeWidth="11" />
  </g>
</svg>
